<?xml version="1.0" encoding="UTF-8" standalone="no"?>
<!-- Created with Inkscape (http://www.inkscape.org/) -->

<svg
   width="210mm"
   height="297mm"
   viewBox="0 0 210 297"
   version="1.1"
   id="svg26836"
   xml:space="preserve"
   inkscape:version="1.2 (dc2aedaf03, 2022-05-15)"
   sodipodi:docname="css3.svg"
   xmlns:inkscape="http://www.inkscape.org/namespaces/inkscape"
   xmlns:sodipodi="http://sodipodi.sourceforge.net/DTD/sodipodi-0.dtd"
   xmlns="http://www.w3.org/2000/svg"
   xmlns:svg="http://www.w3.org/2000/svg"><sodipodi:namedview
     id="namedview26838"
     pagecolor="#ffffff"
     bordercolor="#000000"
     borderopacity="0.25"
     inkscape:showpageshadow="2"
     inkscape:pageopacity="0.0"
     inkscape:pagecheckerboard="0"
     inkscape:deskcolor="#d1d1d1"
     inkscape:document-units="mm"
     showgrid="false"
     inkscape:zoom="0.37480727"
     inkscape:cx="85.377213"
     inkscape:cy="626.98891"
     inkscape:window-width="1366"
     inkscape:window-height="705"
     inkscape:window-x="-8"
     inkscape:window-y="-8"
     inkscape:window-maximized="1"
     inkscape:current-layer="layer1" /><defs
     id="defs26833" /><g
     inkscape:label="Capa 1"
     inkscape:groupmode="layer"
     id="layer1"
     transform="matrix(1.9221062,0,0,1.9221062,-55.722576,-91.267167)"><g
       id="g30737"
       transform="matrix(4.5691715,0,0,4.5691715,-261.60583,-583.9947)"
       style="display:inline"><path
         style="fill:#f8f1ed;stroke-width:0.134396"
         d="m 72.681994,162.72901 c -1.552268,-0.44018 -2.861475,-0.84166 -2.909349,-0.89216 -0.04787,-0.0505 -0.36668,-3.29716 -0.708459,-7.21479 -0.341778,-3.91763 -0.653098,-7.31952 -0.69182,-7.55975 l -0.07041,-0.43678 h 7.538328 7.538329 l -0.07041,0.43678 c -0.03872,0.24023 -0.350042,3.64212 -0.691821,7.55975 -0.341778,3.91763 -0.660584,7.16306 -0.708457,7.21207 -0.120333,0.12318 -5.935883,1.72878 -6.194508,1.71022 -0.115019,-0.008 -1.479163,-0.37516 -3.031431,-0.81534 z m 5.079661,-3.15535 c 0.97598,-0.27027 1.786738,-0.49921 1.801682,-0.50875 0.02764,-0.0177 0.846399,-8.91113 0.846399,-9.19376 v -0.15453 h -2.284724 -2.284724 v 0.87357 0.87357 h 1.362223 1.362223 l -0.08547,0.62354 c -0.047,0.34295 -0.08546,0.79653 -0.08546,1.00797 v 0.38443 h -1.276757 -1.276758 v 0.87357 0.87357 h 1.142362 1.142362 l -0.0012,0.57118 c -6.45e-4,0.31415 -0.03814,0.87887 -0.08333,1.25494 l -0.08217,0.68376 -1.025429,0.26562 -1.025429,0.26561 -0.03974,0.89857 c -0.02186,0.4942 -0.0039,0.89856 0.03983,0.89856 0.04376,0 0.878098,-0.22114 1.854079,-0.49142 z"
         id="path30777" /><path
         style="fill:#e9e9e9;stroke-width:0.134396"
         d="m 72.749192,162.73322 c -1.589227,-0.44529 -2.927871,-0.84981 -2.974764,-0.89892 -0.04689,-0.0491 -0.364861,-3.29461 -0.706593,-7.21224 -0.341733,-3.91763 -0.653854,-7.31952 -0.693604,-7.55975 l -0.07227,-0.43678 h 7.522528 7.522527 l -0.07139,0.70557 c -0.03927,0.38807 -0.352408,3.81971 -0.695867,7.62586 l -0.62447,6.92029 -2.956701,0.8307 c -1.626186,0.45689 -3.047418,0.83165 -3.158295,0.83281 -0.110876,0.001 -1.501869,-0.36223 -3.091096,-0.80754 z m 5.024453,-3.15509 c 0.969386,-0.26782 1.776907,-0.49892 1.794491,-0.51356 0.03216,-0.0268 0.8416,-8.85078 0.8416,-9.17459 v -0.17336 h -4.569448 -4.569447 l 0.01061,0.23519 0.01061,0.2352 0.06779,-0.168 0.06779,-0.16799 h 2.206326 2.206326 v 0.80637 0.80637 h 1.362223 1.362223 l -0.08547,0.62354 c -0.047,0.34295 -0.08546,0.79653 -0.08546,1.00797 v 0.38443 l -2.38552,0.0273 -2.38552,0.0274 1.108763,0.0453 1.108762,0.0453 v 0.80094 0.80094 h 1.142362 1.142362 l -0.0012,0.57118 c -6.45e-4,0.31415 -0.03805,0.87806 -0.08312,1.25314 l -0.08195,0.68196 -0.622455,0.16418 c -0.34235,0.0903 -0.834128,0.22006 -1.092839,0.28836 l -0.470384,0.12418 0.04704,0.76058 0.04704,0.76058 -0.181439,0.11498 -0.181439,0.11498 0.253412,0.002 c 0.139377,0.001 1.046547,-0.21707 2.015933,-0.48489 z"
         id="path30775" /><path
         style="fill:#d3e6f1;stroke-width:0.134396"
         d="m 72.681994,162.70645 -2.956701,-0.82938 -0.03289,-0.26762 c -0.01809,-0.14719 -0.304681,-3.38223 -0.636875,-7.18899 -0.332193,-3.80675 -0.631101,-7.11792 -0.66424,-7.35815 l -0.06025,-0.43678 h 7.52026 7.520258 l -0.06375,0.30239 c -0.03507,0.16631 -0.346546,3.5682 -0.692177,7.55974 -0.345633,3.99155 -0.665844,7.29581 -0.71158,7.34281 -0.09323,0.0958 -5.964024,1.73554 -6.147886,1.71713 -0.06461,-0.006 -1.44798,-0.38499 -3.074166,-0.84115 z m 5.093866,-3.12536 c 0.968168,-0.26619 1.775685,-0.49829 1.794482,-0.51576 0.03516,-0.0327 0.839394,-8.8024 0.839394,-9.1531 v -0.19561 h -4.587715 -4.587715 l 0.08546,0.62354 c 0.04701,0.34295 0.08547,0.73605 0.08547,0.87357 v 0.25003 h 3.579748 3.579749 l -0.08547,0.62354 c -0.047,0.34295 -0.08546,0.79653 -0.08546,1.00797 v 0.38443 h -2.368721 -2.368721 l 0.084,0.41998 c 0.0462,0.23099 0.084,0.6241 0.084,0.87357 v 0.45359 h 2.150328 2.150328 l -0.01,0.63838 c -0.0055,0.3511 -0.05084,0.90825 -0.100797,1.23809 l -0.09083,0.59972 -1.030025,0.29494 -1.030025,0.29495 -1.086704,-0.27291 -1.086705,-0.2729 -0.0018,-0.42017 c -0.001,-0.23109 -0.0383,-0.55623 -0.08287,-0.72255 L 73.524215,156.302 H 72.657263 71.79031 l 0.06572,0.23519 c 0.03615,0.12936 0.105024,0.7511 0.153059,1.38165 l 0.08734,1.14645 1.703936,0.48356 c 2.137804,0.6067 1.893341,0.60472 3.975497,0.0322 z"
         id="path30773" /><path
         style="fill:#c9dae8;stroke-width:0.134396"
         d="m 72.681994,162.69606 -2.956701,-0.83611 -0.629029,-6.97883 c -0.345966,-3.83836 -0.633237,-7.26611 -0.638379,-7.61722 l -0.0093,-0.63837 h 7.391752 7.391753 l -0.0093,0.63837 c -0.0051,0.35111 -0.292408,3.77748 -0.638379,7.61415 l -0.629038,6.97577 -3.023899,0.84705 c -1.663144,0.46588 -3.084377,0.84351 -3.158294,0.83917 -0.07392,-0.004 -1.464911,-0.38413 -3.091097,-0.84398 z m 5.174511,-3.11663 1.734964,-0.48564 0.0742,-0.55592 c 0.0999,-0.74841 0.744065,-8.11502 0.744065,-8.50899 v -0.31226 h -4.569448 -4.569447 v 0.25004 c 0,0.13751 0.03846,0.53062 0.08547,0.87357 l 0.08546,0.62353 h 3.541153 3.541152 l -0.07649,0.83998 c -0.04207,0.46198 -0.09972,0.91557 -0.128117,1.00796 l -0.05163,0.168 H 75.96131 73.654784 l 0.0833,0.50398 c 0.04582,0.27719 0.08397,0.6703 0.08478,0.87357 l 0.0015,0.36959 h 2.166224 2.166224 l -0.09523,1.17596 c -0.112866,1.39374 -0.02754,1.28406 -1.257857,1.6168 l -0.985307,0.26647 -1.064225,-0.28023 -1.064225,-0.28023 -0.0018,-0.40942 c -0.001,-0.22517 -0.0383,-0.54548 -0.08287,-0.7118 l -0.08104,-0.30239 h -0.854536 -0.854536 l 0.05919,0.36959 c 0.03255,0.20327 0.09549,0.82566 0.139872,1.38309 l 0.08068,1.01349 1.704707,0.48383 c 2.139409,0.6072 1.989324,0.60618 4.056911,0.0274 z"
         id="path30771" /><path
         style="fill:#aad4ea;stroke-width:0.134396"
         d="m 72.778335,162.71013 -2.994755,-0.83071 -0.05707,-0.2688 c -0.07348,-0.34604 -1.278681,-14.12606 -1.278277,-14.61551 l 3.05e-4,-0.36958 h 7.391752 7.391753 l 4.04e-4,0.36958 c 5.37e-4,0.48388 -1.205711,14.26555 -1.27918,14.61551 l -0.05643,0.2688 -2.927464,0.79656 c -1.610134,0.43812 -2.98797,0.81194 -3.061888,0.83072 -0.07392,0.0188 -1.482035,-0.33968 -3.12915,-0.79657 z m 5.065699,-3.11587 c 0.917266,-0.25739 1.695851,-0.49607 1.730188,-0.53041 0.06814,-0.0681 0.828159,-8.20076 0.832712,-8.91044 l 0.0028,-0.43679 h -4.569448 -4.569447 l 0.0015,0.36959 c 8.2e-4,0.20327 0.03896,0.59638 0.08478,0.87357 l 0.0833,0.50398 h 3.531151 3.531152 l -0.06531,0.83998 c -0.03592,0.46198 -0.08877,0.91557 -0.117433,1.00796 l -0.05212,0.168 h -2.30721 -2.307209 l 0.08547,0.62353 c 0.047,0.34295 0.08546,0.73606 0.08546,0.87357 v 0.25004 h 2.150328 2.150328 l -0.01329,0.50398 c -0.0073,0.27719 -0.05267,0.83309 -0.100796,1.23533 l -0.08751,0.73134 -1.064363,0.28613 -1.064362,0.28612 -1.018768,-0.28248 -1.018768,-0.28248 -0.03625,-0.3318 c -0.01993,-0.18249 -0.06507,-0.51324 -0.100292,-0.73499 l -0.06405,-0.40319 -0.883878,0.0455 -0.883877,0.0455 0.07033,0.49208 c 0.03868,0.27064 0.107496,0.89198 0.152914,1.38075 l 0.08258,0.88867 1.704827,0.47713 c 2.123898,0.59441 2.034831,0.59375 4.044561,0.0298 z"
         id="path30769" /><path
         style="fill:#b6ccdc;stroke-width:0.134396"
         d="m 72.840113,162.70787 -2.932977,-0.82845 -0.106044,-0.2016 c -0.05832,-0.11087 -0.177701,-1.09069 -0.265281,-2.17737 -0.08758,-1.08667 -0.186405,-2.23575 -0.219612,-2.55351 -0.05525,-0.5287 -0.357385,-3.90156 -0.539326,-6.02076 -0.04125,-0.48046 -0.132001,-1.46964 -0.201668,-2.19817 -0.06967,-0.72852 -0.126669,-1.49962 -0.126669,-1.71354 v -0.38894 h 7.391752 7.391753 v 0.38894 c 0,0.21392 -0.05982,1.01526 -0.132933,1.78074 -0.07311,0.76549 -0.161781,1.72443 -0.197038,2.13097 -0.222332,2.56366 -0.620179,7.01633 -0.672465,7.52615 -0.03411,0.33263 -0.103372,1.16454 -0.153913,1.8487 l -0.09189,1.24392 -0.148653,0.18914 -0.148654,0.18913 -2.822306,0.76876 c -1.552268,0.42282 -2.882783,0.78577 -2.956701,0.80655 -0.07392,0.0208 -1.454235,-0.33501 -3.067373,-0.79066 z m 6.733747,-3.64366 c 0.05162,-0.0516 0.2804,-2.16082 0.508406,-4.68712 l 0.414555,-4.59327 -0.09966,-0.1166 -0.09966,-0.1166 -4.513326,0.0996 -4.513326,0.0995 0.0015,0.35303 c 8.2e-4,0.19417 0.0388,0.57884 0.08443,0.85482 l 0.08295,0.50179 3.506219,0.0358 3.506218,0.0358 -0.03632,0.67198 c -0.01997,0.36959 -0.06498,0.77015 -0.100016,0.89015 l -0.0637,0.21817 -2.29742,0.0982 -2.29742,0.0982 0.08355,0.60956 c 0.04595,0.33525 0.08355,0.72207 0.08355,0.85958 v 0.25004 h 2.157339 2.157339 l -0.09207,1.17596 c -0.110106,1.40639 0.04332,1.2102 -1.223811,1.56483 l -1.050066,0.29388 -1.007967,-0.27664 -1.007966,-0.27664 -0.03625,-0.33353 c -0.01993,-0.18344 -0.06507,-0.51496 -0.100292,-0.73671 l -0.06405,-0.40319 -0.883878,0.0455 -0.883877,0.0455 0.07033,0.49208 c 0.03868,0.27064 0.107413,0.89121 0.152731,1.37904 l 0.0824,0.88696 1.906603,0.52743 1.906603,0.52743 1.786262,-0.49034 c 0.982443,-0.26969 1.828494,-0.53258 1.880112,-0.5842 z"
         id="path30767" /><path
         style="fill:#91cee9;stroke-width:0.134396"
         d="m 72.817892,162.70294 -2.955198,-0.83338 -0.09856,-0.33106 c -0.08699,-0.29222 -1.325317,-14.07912 -1.318343,-14.67778 l 0.0027,-0.23519 h 7.391752 7.391753 l 0.0026,0.23519 c 0.0075,0.68836 -1.250244,14.52329 -1.341334,14.75484 l -0.107683,0.27373 -2.871846,0.78522 c -1.57952,0.43188 -2.932328,0.80246 -3.006246,0.82352 -0.07392,0.0211 -1.464235,-0.33673 -3.089595,-0.79509 z m 6.755968,-3.63873 c 0.05162,-0.0516 0.2804,-2.16082 0.508406,-4.68712 l 0.414555,-4.59327 -0.09966,-0.1166 -0.09966,-0.1166 -4.513326,0.0996 -4.513326,0.0995 0.0018,0.55463 c 0.001,0.30504 0.03804,0.68971 0.0823,0.85481 l 0.08046,0.30019 3.508347,0.0358 3.508348,0.0358 -0.03632,0.67198 c -0.01998,0.36959 -0.06498,0.77015 -0.100016,0.89015 l -0.06369,0.21817 -2.281069,0.0975 -2.281069,0.0975 0.0015,0.35631 c 8.2e-4,0.19596 0.03897,0.58309 0.08478,0.86028 l 0.0833,0.50399 h 2.139754 2.139755 l -0.0936,1.17596 -0.09359,1.17596 -0.148609,0.0967 c -0.08173,0.0532 -0.583201,0.19938 -1.114369,0.32493 l -0.965761,0.22827 -0.982974,-0.26598 -0.982975,-0.26597 -0.0672,-0.73094 -0.0672,-0.73094 -0.921459,-0.0401 -0.92146,-0.0401 0.08703,0.98084 c 0.04787,0.53946 0.119115,1.20184 0.158328,1.47197 l 0.0713,0.49114 1.894441,0.5258 1.89444,0.5258 1.797314,-0.49608 c 0.988523,-0.27284 1.839547,-0.53831 1.891165,-0.58993 z"
         id="path30765" /><path
         style="fill:#6fc1e5;stroke-width:0.134396"
         d="m 72.81639,162.69656 -2.956702,-0.8351 -0.102684,-0.46141 c -0.0942,-0.42328 -1.308468,-13.88255 -1.308468,-14.50341 v -0.27111 h 7.391752 7.391753 l -0.0047,0.36958 c -0.0026,0.20328 -0.295077,3.59225 -0.65001,7.53106 l -0.645335,7.16148 -0.122764,0.1112 c -0.09098,0.0824 -3.878292,1.17199 -5.90177,1.69788 -0.07392,0.0192 -1.464911,-0.34087 -3.091097,-0.80017 z m 5.431463,-3.18143 c 0.769779,-0.21456 1.410344,-0.40539 1.423477,-0.42407 0.01313,-0.0187 0.207754,-2.12044 0.432491,-4.6706 l 0.408612,-4.63664 -0.10747,-0.1166 -0.10747,-0.1166 -4.513326,0.0996 -4.513326,0.0995 0.0018,0.55463 c 0.001,0.30504 0.0383,0.6907 0.08287,0.85701 l 0.08104,0.30239 h 3.478609 3.478608 l -0.0018,0.63838 c -0.001,0.35111 -0.03634,0.76695 -0.07851,0.92408 l -0.07667,0.2857 -2.273414,0.0972 -2.273414,0.0972 0.0015,0.35631 c 8.2e-4,0.19596 0.03897,0.58309 0.08478,0.86028 l 0.0833,0.50399 h 2.131029 2.13103 l -0.08396,1.04156 c -0.04618,0.57286 -0.131099,1.13404 -0.188717,1.24707 l -0.104759,0.2055 -1.014735,0.25268 -1.014734,0.25269 -0.978762,-0.26483 -0.978762,-0.26483 -0.0672,-0.73094 -0.0672,-0.73094 -0.921459,-0.0401 -0.92146,-0.0401 0.08703,0.98084 c 0.04787,0.53946 0.119115,1.20184 0.158328,1.47197 l 0.0713,0.49114 1.905493,0.52959 1.905493,0.52959 0.470385,-0.12627 c 0.258711,-0.0695 1.100203,-0.30183 1.869982,-0.5164 z"
         id="path30763" /><path
         style="fill:#8bb5d4;stroke-width:0.134396"
         d="m 72.81639,162.69656 -2.956702,-0.8351 -0.102684,-0.46141 c -0.0942,-0.42328 -1.308468,-13.88255 -1.308468,-14.50341 v -0.27111 h 7.391752 7.391753 l -0.0047,0.36958 c -0.0026,0.20328 -0.295077,3.59225 -0.65001,7.53106 l -0.645335,7.16148 -0.122764,0.1112 c -0.09098,0.0824 -3.878292,1.17199 -5.90177,1.69788 -0.07392,0.0192 -1.464911,-0.34087 -3.091097,-0.80017 z m 5.107029,-3.04965 c 0.88701,-0.23948 1.653012,-0.47015 1.702227,-0.51261 0.109131,-0.0941 0.954238,-9.42672 0.861986,-9.51898 -0.03604,-0.036 -2.124557,-0.0207 -4.641156,0.034 l -4.575635,0.0995 0.0018,0.5551 c 0.001,0.30531 0.03581,0.68165 0.07734,0.83633 l 0.0755,0.28122 3.441917,0.0909 c 1.893055,0.05 3.467288,0.1163 3.498296,0.14731 0.03101,0.031 0.0147,0.41545 -0.03623,0.85431 l -0.09261,0.79792 -2.273465,0.0972 -2.273466,0.0972 0.0015,0.35631 c 8.2e-4,0.19596 0.03806,0.57754 0.08278,0.84793 l 0.0813,0.49163 2.106346,0.0955 2.106346,0.0954 -0.104811,1.0842 -0.10481,1.08419 -0.144174,0.0891 c -0.0793,0.049 -0.578771,0.19676 -1.109945,0.32834 l -0.965773,0.23923 -0.940768,-0.26314 -0.940769,-0.26314 -0.0672,-0.72851 -0.0672,-0.72852 -0.921459,-0.0401 -0.92146,-0.0401 0.08703,0.98084 c 0.04787,0.53946 0.119115,1.20184 0.158328,1.47197 l 0.0713,0.49114 1.905493,0.53873 c 1.048021,0.29631 1.99621,0.51764 2.107087,0.49186 0.110876,-0.0258 0.927329,-0.24282 1.814339,-0.4823 z"
         id="path30761" /><path
         style="fill:#6da6cf;stroke-width:0.134396"
         d="m 72.654488,162.63555 c -1.493478,-0.42149 -2.754277,-0.80521 -2.801775,-0.85271 -0.07013,-0.0701 -1.388239,-14.11348 -1.400586,-14.92212 l -0.0036,-0.23519 h 7.391752 7.391753 l -0.0032,0.23519 c -0.0018,0.12935 -0.299445,3.52349 -0.661479,7.54253 l -0.658245,7.30733 -0.111295,0.0947 c -0.188467,0.16037 -5.734733,1.6277 -6.09189,1.61168 -0.184794,-0.008 -1.557926,-0.35993 -3.051405,-0.78142 z m 5.065755,-2.92854 c 0.998757,-0.27085 1.856188,-0.52788 1.905403,-0.57118 0.06612,-0.0582 0.918485,-8.83168 0.918485,-9.4541 v -0.0995 h -4.614245 c -2.537836,0 -4.639663,0.0254 -4.670728,0.0565 -0.03106,0.0311 -0.02603,0.43929 0.0112,0.90717 l 0.06768,0.85069 3.487288,0.105 c 1.918008,0.0578 3.511924,0.12963 3.542035,0.15974 0.03011,0.0301 0.0122,0.42133 -0.0398,0.86937 l -0.09455,0.81462 H 75.961488 73.68996 l 0.0018,0.63838 c 0.001,0.35111 0.03683,0.76883 0.0796,0.92827 l 0.07777,0.28989 2.109519,0.0956 2.109519,0.0956 -0.104413,1.08008 c -0.124231,1.28509 0.0069,1.12311 -1.181936,1.45955 l -0.97356,0.27551 -0.888605,-0.22321 c -0.488733,-0.12276 -0.965359,-0.28691 -1.059169,-0.36476 l -0.170564,-0.14156 v -0.65552 -0.65552 h -0.960202 -0.960203 l 0.08568,0.90717 c 0.04712,0.49894 0.08703,1.0886 0.08869,1.31035 0.0017,0.22176 0.05432,0.48414 0.11704,0.58309 l 0.114026,0.17989 1.799052,0.51492 c 0.989478,0.2832 1.828579,0.51976 1.864667,0.52568 0.03609,0.006 0.88278,-0.21085 1.881537,-0.4817 z"
         id="path30759" /><path
         style="fill:#32a8db;stroke-width:0.134396"
         d="m 72.703372,162.62061 c -1.54051,-0.43342 -2.825914,-0.81302 -2.856454,-0.84356 -0.03054,-0.0305 -0.326218,-3.10438 -0.657063,-6.83075 -0.330844,-3.72638 -0.637338,-7.09274 -0.681098,-7.4808 l -0.07956,-0.70558 h 7.411094 7.411094 l -0.07956,0.70558 c -0.04376,0.38806 -0.350253,3.75442 -0.681099,7.4808 -0.330844,3.72637 -0.626358,6.80005 -0.656699,6.83039 -0.110753,0.11075 -5.783979,1.64803 -6.052727,1.64011 -0.152347,-0.004 -1.537413,-0.36277 -3.077923,-0.79619 z m 5.016871,-2.9136 c 0.998757,-0.27085 1.856188,-0.52788 1.905403,-0.57118 0.06612,-0.0582 0.918485,-8.83168 0.918485,-9.4541 v -0.0995 h -4.628713 -4.628714 l -0.04841,0.10079 c -0.02663,0.0554 -0.02531,0.46924 0.0029,0.91955 l 0.05135,0.81874 3.507519,0.0901 c 1.929135,0.0496 3.53328,0.11589 3.564767,0.14737 0.03149,0.0315 0.0147,0.42383 -0.0373,0.87187 l -0.09455,0.81462 h -2.249129 c -1.23702,0 -2.274545,0.0254 -2.30561,0.0565 -0.03106,0.0311 -0.02602,0.43929 0.0112,0.90717 l 0.06768,0.85069 2.150328,0.1344 2.150328,0.13439 -0.09599,1.05916 c -0.114008,1.2579 0.0056,1.10551 -1.129078,1.43866 l -0.925255,0.27167 -0.989344,-0.23943 -0.989344,-0.23942 -0.119419,-0.3141 c -0.06568,-0.17275 -0.119419,-0.52183 -0.119419,-0.77573 v -0.46163 h -0.955265 -0.955266 l 0.09519,1.37755 0.09519,1.37755 0.123561,0.13034 c 0.09188,0.0969 3.313356,1.07488 3.745334,1.13699 0.03609,0.005 0.88278,-0.21218 1.881537,-0.48303 z"
         id="path30757" /><path
         style="fill:#30a6d9;stroke-width:0.134396"
         d="m 72.703372,162.62061 c -1.54051,-0.43342 -2.825914,-0.81302 -2.856454,-0.84356 -0.03054,-0.0305 -0.326218,-3.10438 -0.657063,-6.83075 -0.330844,-3.72638 -0.637338,-7.09274 -0.681098,-7.4808 l -0.07956,-0.70558 h 7.411094 7.411094 l -0.07956,0.70558 c -0.04376,0.38806 -0.350253,3.75442 -0.681099,7.4808 -0.330844,3.72637 -0.626358,6.80005 -0.656699,6.83039 -0.110753,0.11075 -5.783979,1.64803 -6.052727,1.64011 -0.152347,-0.004 -1.537413,-0.36277 -3.077923,-0.79619 z m 5.757629,-1.21359 c 1.18268,-0.32108 2.162255,-0.5899 2.176833,-0.59738 0.01458,-0.007 0.272172,-2.79374 0.57243,-6.19169 0.300258,-3.39795 0.569939,-6.28392 0.599291,-6.41328 l 0.05337,-0.23519 -2.977718,-1.8e-4 -2.977718,-1.9e-4 0.04604,0.73936 0.04604,0.73936 h 2.272286 2.272285 v -0.13969 -0.1397 l 0.186721,0.1733 0.18672,0.17329 -0.09497,0.0672 c -0.07793,0.0551 -0.686977,6.34584 -0.884792,9.13889 l -0.05235,0.73918 -0.170907,-0.0435 c -0.094,-0.024 -0.973923,0.17971 -1.955388,0.45258 l -1.784482,0.49614 v 0.87215 0.87215 l 0.167994,-0.0595 c 0.0924,-0.0327 1.135642,-0.32219 2.318323,-0.64326 z m -2.330413,-0.2374 0.02151,-0.76855 0.05087,0.47038 c 0.02798,0.25871 0.07949,0.55279 0.114477,0.65351 l 0.06361,0.18313 0.203251,-0.16868 0.203251,-0.16868 0.08518,0.0852 0.08518,0.0852 0.150111,-0.12459 c 0.08256,-0.0685 0.299798,-0.14512 0.48275,-0.17023 0.182951,-0.0251 0.41226,-0.0955 0.509575,-0.1565 0.09731,-0.061 0.212706,-0.0751 0.256425,-0.0314 0.04372,0.0437 0.160652,0.0121 0.25985,-0.0702 0.0992,-0.0823 0.18036,-0.10463 0.18036,-0.0496 0,0.0551 0.08807,0.027 0.195706,-0.0623 l 0.195706,-0.16242 0.130996,0.081 0.130996,0.081 0.09008,-0.14575 0.09008,-0.14575 0.183695,0.0705 0.183695,0.0705 0.08079,-0.13071 0.08079,-0.13072 0.125109,0.0773 0.125109,0.0773 0.01028,-0.57911 c 0.0057,-0.31851 0.02803,-0.66983 0.04971,-0.78071 0.02169,-0.11087 0.08069,-0.74589 0.131119,-1.41115 0.05043,-0.66526 0.115048,-1.45147 0.143602,-1.74714 0.02855,-0.29567 0.08928,-0.96093 0.134951,-1.47835 0.04567,-0.51742 0.107605,-1.18268 0.137631,-1.47835 0.09389,-0.92458 0.188489,-1.97577 0.27816,-3.0911 0.04754,-0.59134 0.10136,-1.21124 0.119592,-1.37755 l 0.03315,-0.30239 h -2.594118 -2.594118 l -0.05272,0.50398 -0.05272,0.50398 -0.02259,-0.63838 -0.02259,-0.63837 h 2.755107 2.755108 v 0.25021 c 0,0.3515 -1.079517,12.29838 -1.114069,12.32927 -0.01556,0.0139 -0.935462,0.27589 -2.044225,0.58217 -1.108763,0.30629 -2.09153,0.58294 -2.183927,0.61477 l -0.167994,0.0579 z m 1.645268,-1.44988 1.71933,-0.47973 0.181639,0.0697 0.18164,0.0697 -0.05788,-0.16115 c -0.03184,-0.0886 0.137708,-2.30812 0.376767,-4.93219 l 0.434652,-4.77104 -4.704178,0.0672 -4.704178,0.0672 0.01344,0.168 c 0.0074,0.0924 0.02251,0.49094 0.0336,0.88566 l 0.02016,0.71767 3.518386,0.0904 c 1.935112,0.0497 3.529327,0.10476 3.542699,0.1223 0.01337,0.0175 -0.0047,0.40988 -0.04026,0.87187 l -0.06457,0.83997 H 75.98093 c -1.235394,0 -2.271588,0.0254 -2.302653,0.0565 -0.03106,0.0311 -0.02602,0.43929 0.0112,0.90717 l 0.06768,0.85069 2.116729,0.11983 2.11673,0.11983 v 0.29724 c 0,0.16348 -0.03812,0.6619 -0.0847,1.1076 l -0.0847,0.81035 -1.091262,0.28152 -1.091262,0.28152 -0.863916,-0.24328 -0.863916,-0.24327 -0.101005,-0.25771 c -0.05555,-0.14173 -0.105256,-0.48449 -0.110452,-0.76168 l -0.0094,-0.50398 h -0.955265 -0.955266 l 0.09519,1.37755 0.09519,1.37755 0.123561,0.13034 c 0.109575,0.11559 3.462142,1.11307 3.821436,1.13699 0.07794,0.005 0.915416,-0.20645 1.861048,-0.4703 z"
         id="path30755" /><path
         style="fill:#5093c5;stroke-width:0.134396"
         d="m 72.703372,162.62061 c -1.54051,-0.43342 -2.825914,-0.81302 -2.856454,-0.84356 -0.03054,-0.0305 -0.326218,-3.10438 -0.657063,-6.83075 -0.330844,-3.72638 -0.637338,-7.09274 -0.681098,-7.4808 l -0.07956,-0.70558 h 7.411094 7.411094 l -0.07956,0.70558 c -0.04376,0.38806 -0.350253,3.75442 -0.681099,7.4808 -0.330844,3.72637 -0.626358,6.80005 -0.656699,6.83039 -0.110753,0.11075 -5.783979,1.64803 -6.052727,1.64011 -0.152347,-0.004 -1.537413,-0.36277 -3.077923,-0.79619 z m 5.707782,-1.16479 2.257024,-0.62519 0.07317,-0.55077 c 0.04024,-0.30292 0.28288,-2.96989 0.539188,-5.92659 0.25631,-2.9567 0.492106,-5.60262 0.523994,-5.87981 l 0.05798,-0.50398 h -3.011111 -3.011111 v 0.73607 0.73608 l 2.385521,0.04 2.38552,0.04 -4.662312,0.0303 -4.662313,0.0303 -0.04841,0.10079 c -0.02663,0.0554 -0.02483,0.47879 0.004,0.94077 l 0.05242,0.83997 1.634408,5e-4 c 2.162643,6.5e-4 5.464602,0.15509 5.464981,0.25561 1.61e-4,0.0439 -0.574375,0.0606 -1.276757,0.0371 l -1.277059,-0.0428 v 0.7484 0.7484 h 1.133435 1.133435 l 0.05599,-0.36959 0.05599,-0.36959 0.02014,0.43679 0.02014,0.43678 h -2.262325 c -1.244278,0 -2.287741,0.0254 -2.318806,0.0565 -0.03106,0.0311 -0.02602,0.43929 0.0112,0.90717 l 0.06768,0.85069 2.150328,0.14736 2.150328,0.14735 -1.108763,0.0206 -1.108763,0.0206 v 1.34395 1.34396 l -0.100796,-0.005 c -0.05544,-0.003 -0.489559,-0.11343 -0.964713,-0.24628 l -0.863916,-0.24156 -0.101005,-0.2577 c -0.05555,-0.14174 -0.105256,-0.4845 -0.110452,-0.76169 l -0.0094,-0.50398 h -0.955265 -0.955266 l 0.09455,1.37755 0.09455,1.37755 0.15514,0.14759 c 0.08533,0.0812 1.023804,0.38128 2.085504,0.66691 1.061699,0.28562 1.863033,0.54175 1.78074,0.56918 l -0.149623,0.0499 v 0.86237 0.86237 h 0.156921 c 0.08631,0 1.172581,-0.28134 2.413945,-0.62519 z"
         id="path30753" /><path
         style="fill:#27a3d8;stroke-width:0.134396"
         d="m 72.69504,162.60904 c -1.545093,-0.43622 -2.82633,-0.8102 -2.847193,-0.83106 -0.02086,-0.0209 -0.313154,-3.15143 -0.649533,-6.95682 -0.336379,-3.80538 -0.646395,-7.17591 -0.688923,-7.49006 l -0.07732,-0.57118 h 7.408222 7.408224 l -0.07788,0.57118 c -0.04283,0.31415 -0.352952,3.68478 -0.689159,7.4903 -0.336206,3.80551 -0.627977,6.93581 -0.64838,6.95621 -0.09013,0.0901 -5.88936,1.64618 -6.097089,1.63596 -0.12744,-0.006 -1.495875,-0.3683 -3.040969,-0.80453 z m 5.716114,-1.15322 2.257024,-0.62519 0.07317,-0.55077 c 0.04024,-0.30292 0.28288,-2.96989 0.539188,-5.92659 0.25631,-2.9567 0.492106,-5.60262 0.523994,-5.87981 l 0.05798,-0.50398 h -3.011111 -3.011111 v 0.73607 0.73608 l 2.385521,0.04 2.38552,0.04 -4.744115,0.0303 -4.744115,0.0303 0.08441,0.83997 c 0.04643,0.46198 0.108011,0.91557 0.136851,1.00796 l 0.05244,0.168 h 3.498501 3.498501 l 2.96e-4,0.1008 2.95e-4,0.10079 -1.277047,-0.0428 -1.277059,-0.0428 v 0.7484 0.7484 h 1.133435 1.133435 l 0.05599,-0.36959 0.05599,-0.36959 0.02014,0.43679 0.02014,0.43678 H 75.92024 73.581063 l 0.06532,0.83997 c 0.03592,0.46199 0.08877,0.91557 0.117433,1.00797 l 0.05212,0.16799 2.120947,0.0274 2.120947,0.0274 -1.108763,0.0453 -1.108763,0.0453 v 1.34758 1.34757 l -0.235192,-0.0686 c -0.129355,-0.0378 -0.578981,-0.16593 -0.999167,-0.28483 l -0.763976,-0.21618 -0.09148,-0.7322 -0.09148,-0.73219 h -0.943623 -0.943624 l 0.09676,1.44475 c 0.05322,0.79461 0.119597,1.46759 0.147502,1.49551 0.02791,0.0279 0.975382,0.31132 2.105504,0.62977 1.130121,0.31845 1.979168,0.58288 1.886771,0.58762 l -0.167995,0.009 v 0.87357 0.87357 h 0.156921 c 0.08631,0 1.172581,-0.28134 2.413945,-0.62519 z"
         id="path30751" /><path
         style="fill:#268ec8;stroke-width:0.134396"
         d="m 72.69504,162.60904 c -1.545093,-0.43622 -2.82633,-0.8102 -2.847193,-0.83106 -0.02086,-0.0209 -0.313154,-3.15143 -0.649533,-6.95682 -0.336379,-3.80538 -0.646395,-7.17591 -0.688923,-7.49006 l -0.07732,-0.57118 h 7.408222 7.408224 l -0.07788,0.57118 c -0.04283,0.31415 -0.352952,3.68478 -0.689159,7.4903 -0.336206,3.80551 -0.627977,6.93581 -0.64838,6.95621 -0.09013,0.0901 -5.88936,1.64618 -6.097089,1.63596 -0.12744,-0.006 -1.495875,-0.3683 -3.040969,-0.80453 z m 5.6854,-1.12635 c 1.21229,-0.3338 2.237796,-0.64055 2.278903,-0.68165 0.04111,-0.0411 0.298389,-2.59728 0.57174,-5.68038 0.27335,-3.0831 0.532073,-5.95338 0.574941,-6.37841 l 0.07794,-0.77277 h -3.021839 -3.021839 v 0.80637 0.80638 h -2.358594 -2.358595 l 0.08441,0.83997 c 0.04643,0.46198 0.108011,0.91557 0.136851,1.00796 l 0.05244,0.168 h 2.221744 2.221743 v 0.87357 0.87357 h -1.129617 -1.129617 l 0.06532,0.83997 c 0.03592,0.46199 0.08877,0.91557 0.117433,1.00797 l 0.05212,0.16799 h 1.012184 1.012184 v 1.42021 1.42021 l -0.235192,-0.0686 c -0.129355,-0.0378 -0.578981,-0.16593 -0.999167,-0.28483 l -0.763976,-0.21618 -0.09148,-0.7322 -0.09148,-0.73219 H 72.715374 71.77175 l 0.09676,1.44475 c 0.05322,0.79461 0.118187,1.46618 0.144368,1.49238 0.03917,0.0392 3.685389,1.09033 3.793816,1.09369 0.01848,5.4e-4 0.0336,0.45273 0.0336,1.00479 v 1.00375 l 0.167995,-0.0587 c 0.0924,-0.0323 1.159868,-0.3318 2.372157,-0.6656 z"
         id="path30749" /><path
         style="fill:#3283bd;stroke-width:0.134396"
         d="m 72.69504,162.60904 c -1.545093,-0.43622 -2.82633,-0.8102 -2.847193,-0.83106 -0.02086,-0.0209 -0.313154,-3.15143 -0.649533,-6.95682 -0.336379,-3.80538 -0.646395,-7.17591 -0.688923,-7.49006 l -0.07732,-0.57118 h 7.408222 7.408224 l -0.07788,0.57118 c -0.04283,0.31415 -0.352952,3.68478 -0.689159,7.4903 -0.336206,3.80551 -0.627977,6.93581 -0.64838,6.95621 -0.09013,0.0901 -5.88936,1.64618 -6.097089,1.63596 -0.12744,-0.006 -1.495875,-0.3683 -3.040969,-0.80453 z m 5.819796,-1.12494 c 1.21229,-0.33458 2.216372,-0.62442 2.231296,-0.64409 0.01492,-0.0197 0.249451,-2.57583 0.521176,-5.68037 0.271724,-3.10454 0.53037,-5.99236 0.574771,-6.41739 l 0.08073,-0.77277 h -3.041258 -3.041259 v 0.80637 0.80638 h -2.358594 -2.358595 l 0.08441,0.83997 c 0.04643,0.46198 0.108011,0.91557 0.136851,1.00796 l 0.05244,0.168 h 2.221744 2.221743 v 0.87357 0.87357 h -1.129617 -1.129617 l 0.06532,0.83997 c 0.03592,0.46199 0.08877,0.91557 0.117433,1.00797 l 0.05212,0.16799 h 1.012184 1.012184 v 1.42021 1.42021 l -0.235192,-0.0686 c -0.129355,-0.0378 -0.578981,-0.16593 -0.999167,-0.28483 l -0.763976,-0.21618 -0.09148,-0.7322 -0.09148,-0.73219 H 72.71538 71.771756 l 0.09676,1.44475 c 0.05322,0.79461 0.118187,1.46618 0.144368,1.49238 0.03917,0.0392 3.685389,1.09033 3.793816,1.09369 0.01848,5.4e-4 0.0336,0.4587 0.0336,1.01807 v 1.01702 l 0.235193,-0.0705 c 0.129355,-0.0388 1.227065,-0.34429 2.439355,-0.67887 z"
         id="path30747" /><path
         style="fill:#1c87c4;stroke-width:0.134396"
         d="m 72.683405,162.59379 c -1.551492,-0.44063 -2.83066,-0.81186 -2.842595,-0.82496 -0.01194,-0.0131 -0.300611,-3.1989 -0.641501,-7.07957 -0.34089,-3.88067 -0.65201,-7.25232 -0.691377,-7.49255 l -0.07158,-0.43679 h 7.403932 7.403934 l -0.07161,0.43679 c -0.03939,0.24023 -0.351255,3.61188 -0.693044,7.49255 -0.341789,3.88067 -0.630909,7.06693 -0.642488,7.08059 -0.06353,0.0749 -5.960718,1.65267 -6.130271,1.64011 -0.111381,-0.008 -1.471913,-0.37553 -3.023405,-0.81617 z m 5.831431,-1.10969 c 1.21229,-0.33458 2.216372,-0.62442 2.231296,-0.64409 0.01492,-0.0197 0.249451,-2.57583 0.521176,-5.68037 0.271724,-3.10454 0.53037,-5.99236 0.574771,-6.41739 l 0.08073,-0.77277 h -3.041258 -3.041259 v 0.80637 0.80638 H 73.47767 71.115052 l 0.09444,0.90717 c 0.05194,0.49894 0.1208,0.95252 0.153024,1.00796 l 0.05859,0.1008 h 2.209594 2.209594 v 0.87357 0.87357 h -1.149035 -1.149035 l 0.08441,0.83997 c 0.04643,0.46199 0.108011,0.91557 0.136851,1.00797 l 0.05244,0.16799 h 1.012184 1.012184 v 1.41116 c 0,0.77613 -0.02121,1.41115 -0.04714,1.41115 -0.02593,0 -0.222482,-0.0575 -0.436786,-0.12783 -0.214303,-0.0703 -0.639764,-0.19172 -0.945468,-0.26983 l -0.555826,-0.14201 -0.09222,-0.73813 -0.09222,-0.73813 h -0.981787 -0.981787 l 0.05599,0.57118 c 0.03079,0.31415 0.09896,0.98716 0.151485,1.49559 l 0.09549,0.92441 1.343955,0.37369 c 0.739175,0.20553 1.600986,0.44201 1.915136,0.52552 l 0.57118,0.15183 v 1.01184 1.01185 l 0.235193,-0.0705 c 0.129355,-0.0388 1.227065,-0.34429 2.439355,-0.67887 z"
         id="path30745" /><path
         style="fill:#267bb9;stroke-width:0.134396"
         d="m 72.683405,162.59379 c -1.551492,-0.44063 -2.83066,-0.81186 -2.842595,-0.82496 -0.01194,-0.0131 -0.300611,-3.1989 -0.641501,-7.07957 -0.34089,-3.88067 -0.65201,-7.25232 -0.691377,-7.49255 l -0.07158,-0.43679 h 7.403932 7.403934 l -0.07161,0.43679 c -0.03939,0.24023 -0.351255,3.61188 -0.693044,7.49255 -0.341789,3.88067 -0.630909,7.06693 -0.642488,7.08059 -0.06353,0.0749 -5.960718,1.65267 -6.130271,1.64011 -0.111381,-0.008 -1.471913,-0.37553 -3.023405,-0.81617 z m 5.681386,-1.03352 c 1.2776,-0.35926 2.345969,-0.67633 2.374153,-0.70461 0.05797,-0.0582 1.150424,-12.07978 1.149646,-12.65099 l -5.04e-4,-0.36958 h -3.023899 -3.023899 v 0.87357 0.87357 H 73.47767 71.115052 l 0.09444,0.90717 c 0.05194,0.49894 0.1208,0.95252 0.153024,1.00796 l 0.05859,0.1008 h 2.209594 2.209594 v 0.87357 0.87357 h -1.149035 -1.149035 l 0.08441,0.83997 c 0.04643,0.46199 0.108011,0.91557 0.136851,1.00797 l 0.05244,0.16799 h 1.012184 1.012184 v 1.41116 c 0,0.77613 -0.02121,1.41115 -0.04714,1.41115 -0.02593,0 -0.222482,-0.0575 -0.436786,-0.12783 -0.214303,-0.0703 -0.639764,-0.19172 -0.945468,-0.26983 l -0.555826,-0.14201 -0.09222,-0.73813 -0.09222,-0.73813 h -0.981787 -0.981787 l 0.05599,0.57118 c 0.03079,0.31415 0.09896,0.98716 0.151485,1.49559 l 0.09549,0.92441 1.343955,0.37369 c 0.739175,0.20553 1.600986,0.44201 1.915136,0.52552 l 0.57118,0.15183 v 1.00279 1.00278 l 0.100797,-9.4e-4 c 0.05544,-5.3e-4 1.146106,-0.2949 2.423706,-0.65416 z"
         id="path30743" /><path
         style="fill:#1578c0;stroke-width:0.134396"
         d="m 72.738234,162.59089 -2.900461,-0.81195 -0.631225,-7.20712 c -0.347174,-3.96392 -0.651366,-7.34319 -0.675982,-7.50951 l -0.04476,-0.30239 h 7.354479 7.35448 l -0.04509,0.30239 c -0.0248,0.16632 -0.329083,3.54363 -0.676185,7.50515 l -0.631096,7.20276 -2.987859,0.82737 c -1.643322,0.45506 -3.039155,0.8224 -3.10185,0.81631 -0.0627,-0.006 -1.419199,-0.37643 -3.014453,-0.82301 z m 5.626557,-1.03062 c 1.2776,-0.35926 2.345969,-0.67633 2.374153,-0.70461 0.05797,-0.0582 1.150424,-12.07978 1.149646,-12.65099 l -5.04e-4,-0.36958 h -3.023899 -3.023899 v 0.87357 0.87357 h -2.370641 -2.370641 l 0.08475,0.70557 c 0.04661,0.38807 0.08528,0.84165 0.08592,1.00797 l 0.0012,0.30239 h 2.284724 2.284723 v 0.87357 0.87357 H 74.679659 73.51903 l 0.08546,0.62354 c 0.04701,0.34294 0.08546,0.79653 0.08546,1.00796 v 0.38443 h 1.075164 1.075164 v 1.40259 1.40259 l -0.939067,-0.26022 c -0.516487,-0.14313 -0.970072,-0.26023 -1.007966,-0.26023 -0.03789,0 -0.0689,-0.14364 -0.0689,-0.31919 0,-0.17556 -0.0378,-0.50819 -0.084,-0.73918 l -0.084,-0.41998 h -0.981456 -0.981456 l 0.07315,0.77277 c 0.04023,0.42503 0.111462,1.10041 0.158284,1.50086 l 0.08513,0.72809 0.335988,0.10448 c 0.184794,0.0575 1.046605,0.29678 1.915136,0.53183 l 1.579147,0.42736 v 0.9912 0.9912 l 0.100797,-9.4e-4 c 0.05544,-5.3e-4 1.146106,-0.2949 2.423706,-0.65416 z"
         id="path30741" /><path
         style="fill:#1471b5;stroke-width:0.134396"
         d="m 75.485015,163.25937 -0.0751,-0.12152 -0.179317,0.0688 -0.179316,0.0688 -0.04228,-0.12453 c -0.02326,-0.0685 -0.226451,-0.14459 -0.451547,-0.16911 -0.225096,-0.0245 -0.482127,-0.0896 -0.571181,-0.14464 l -0.161916,-0.10007 -0.134396,0.0831 -0.134395,0.0831 v -0.1567 -0.15671 l -0.197289,0.0757 -0.19729,0.0757 -0.0851,-0.13769 -0.0851,-0.13769 -0.179316,0.0688 -0.179316,0.0688 -0.04228,-0.12453 c -0.02325,-0.0685 -0.226451,-0.14459 -0.451546,-0.16911 -0.225096,-0.0245 -0.482127,-0.0896 -0.571181,-0.14463 l -0.161916,-0.10007 -0.134396,0.0831 -0.134395,0.0831 v -0.15671 -0.1567 l -0.19729,0.0757 -0.197289,0.0757 -0.0851,-0.13769 -0.0851,-0.13769 -0.16003,0.0614 -0.16003,0.0614 -0.195963,-0.15304 -0.195964,-0.15305 -0.03142,-0.53758 c -0.01728,-0.29567 -0.05959,-0.85507 -0.09403,-1.2431 -0.03443,-0.38804 -0.09273,-1.0533 -0.129543,-1.47835 -0.03682,-0.42506 -0.09718,-1.10546 -0.134136,-1.51201 -0.07007,-0.7708 -0.154408,-1.70261 -0.267599,-2.9567 -0.08461,-0.93744 -0.184615,-2.06886 -0.270242,-3.05744 -0.03682,-0.42506 -0.09549,-1.07522 -0.130384,-1.44481 -0.03489,-0.36958 -0.08715,-1.0802 -0.116113,-1.57914 l -0.05267,-0.90717 h 7.206733 7.206734 l -0.05267,0.90717 c -0.05392,0.92876 -0.126731,1.84372 -0.24598,3.09115 -0.118618,1.2408 -0.264964,2.87268 -0.400744,4.46859 -0.120964,1.42178 -0.199586,2.30807 -0.271234,3.05755 -0.121473,1.27068 -0.192141,2.10773 -0.224086,2.65426 l -0.03142,0.53758 -0.195964,0.15305 -0.195963,0.15304 -0.16003,-0.0614 -0.16003,-0.0614 -0.09008,0.14575 -0.09008,0.14575 -0.11383,-0.0703 c -0.06261,-0.0387 -0.285221,2.7e-4 -0.494697,0.0866 -0.209476,0.0863 -0.451903,0.14561 -0.538726,0.13179 -0.08682,-0.0138 -0.194596,0.0343 -0.239496,0.10698 l -0.08164,0.13209 -0.197289,-0.0757 -0.197289,-0.0757 v 0.14456 0.14455 l -0.187999,-0.0721 -0.187999,-0.0721 -0.09008,0.14575 -0.09008,0.14575 -0.113831,-0.0704 c -0.06261,-0.0387 -0.285221,2.7e-4 -0.494697,0.0866 -0.209476,0.0863 -0.451903,0.14561 -0.538726,0.13179 -0.08682,-0.0138 -0.194596,0.0343 -0.239496,0.10697 l -0.08164,0.13209 -0.197289,-0.0757 -0.197289,-0.0757 v 0.15671 0.1567 l -0.134396,-0.0831 -0.134395,-0.0831 -0.165632,0.10237 c -0.240262,0.14849 -0.640096,0.15766 -0.727224,0.0167 z m 2.862703,-1.66396 c 1.244986,-0.34099 2.309465,-0.66202 2.36551,-0.7134 l 0.101898,-0.0934 0.575025,-6.41582 c 0.316264,-3.5287 0.5476,-6.44324 0.51408,-6.47676 -0.03352,-0.0335 -1.411618,-0.0609 -3.062443,-0.0609 h -3.0015 v 0.87357 0.87357 h -2.370641 -2.370641 l 0.08475,0.70557 c 0.04661,0.38807 0.08528,0.84165 0.08592,1.00797 l 0.0012,0.30239 h 2.284724 2.284723 v 0.87357 0.87357 H 74.679659 73.51903 l 0.08546,0.62354 c 0.04701,0.34294 0.08546,0.79653 0.08546,1.00796 v 0.38443 h 1.075164 1.075164 v 1.40259 1.40259 l -0.939067,-0.26022 c -0.516487,-0.14313 -0.970072,-0.26023 -1.007966,-0.26023 -0.03789,0 -0.0689,-0.14364 -0.0689,-0.31919 0,-0.17556 -0.0378,-0.50819 -0.084,-0.73918 l -0.084,-0.41998 h -0.981456 -0.981456 l 0.07315,0.77277 c 0.04023,0.42503 0.111462,1.10041 0.158284,1.50086 l 0.08513,0.72809 0.335988,0.10448 c 0.184794,0.0575 1.046605,0.29678 1.915136,0.53183 l 1.579147,0.42736 v 0.9912 0.9912 h 0.12191 c 0.06705,0 1.140534,-0.27899 2.38552,-0.61999 z"
         id="path30739" /></g><path
       style="display:inline;fill:#ffffff;fill-opacity:1;stroke:#ffffff;stroke-width:1.2737;stroke-linecap:square;stroke-dasharray:none;stroke-opacity:1"
       d="m 321.6632,541.09667 v -14.5034 l 10.61206,-2.8988 c 5.83663,-1.59434 13.50574,-3.61621 17.04246,-4.49302 3.53672,-0.87682 6.98335,-2.14717 7.65919,-2.823 1.20655,-1.20656 2.69012,-14.63593 3.82135,-34.59111 l 0.52136,-9.19712 h -19.77974 -19.77975 l -0.28428,-13.91358 c -0.15636,-7.65248 -0.15458,-14.11405 0.004,-14.35906 0.15854,-0.24501 9.95252,-0.61207 21.76438,-0.81569 l 21.47613,-0.37023 1.15056,-12.86206 c 0.6328,-7.07414 1.39997,-14.87836 1.70482,-17.34272 L 368.13,408.44624 H 344.89658 321.6632 l -0.0129,-12.97029 c -0.007,-7.13366 -0.26883,-13.92538 -0.58166,-15.0927 l -0.56879,-2.12241 h 39.25672 39.25671 v 5.99023 c 0,5.5956 -11.29106,132.40226 -13.14306,147.60599 -0.46322,3.80272 -1.09135,7.16316 -1.39584,7.46765 -1.44419,1.4442 -56.551,16.27537 -60.47285,16.27537 h -2.33835 z"
       id="path30848"
       transform="scale(0.26458333)" /></g></svg>
